<svg xmlns="http://www.w3.org/2000/svg" viewBox="56.86 166.55 461.28 242.83" fill="#ffffff"> <svg xmlns="http://www.w3.org/2000/svg" xmlns:xlink="http://www.w3.org/1999/xlink" version="1.1" id="Layer_1" x="215.93" y="166.54998992919923" viewBox="2.999999761581421 3 370 486.0000305175781" xml:space="preserve" height="188" width="143.12756911057693" preserveAspectRatio="xMinYMin" enable-background="new 0 0 376 492" style="overflow: visible;"><path d="M228.9,3c-35.8,0-70,8.2-101.7,24.2c-9.1,4.6-18,9.9-26.6,15.9c-10.1,7-19.7,14.9-28.6,23.5c-7.2,6.9-14,14.5-20.3,22.4   c-7.9,9.9-14.9,20.6-20.9,31.6c-5.2,9.5-9.8,19.4-13.5,29.6c-5.1,13.5-8.8,27.6-11.1,41.9c-2,12-3,24.4-3,36.8v4.8l131.5,138   l55.1,57.9h47.9L37.9,220.1c0.7-14.8,3.1-29.6,7.2-43.8c3-10.4,6.9-20.7,11.7-30.5c5.5-11.3,12.1-22,19.5-31.9   c5.9-7.9,12.5-15.3,19.6-22.2c8.6-8.4,18.1-16,28.3-22.7c8.5-5.6,17.5-10.5,26.8-14.7c24.6-11.1,50.8-16.7,78-16.7h109.5L373,3   H228.9z"></path><path d="M155.4,247.1l-47.1-49.4c3.2-12.2,8.2-23.9,15-34.7c5.3-8.4,11.5-16.2,18.6-23c8.6-8.5,18.5-15.7,29.2-21.3   c9.5-5,19.5-8.7,29.9-11.1c9-2.1,18.5-3.2,27.9-3.2h65.7v161.1h-30.1l-66.3-69.6h-47.9l99.3,104.2h79.7V69.7H228.9   c-18,0-35.7,3-52.5,8.9c-10,3.5-19.8,8.1-29,13.6c-10.7,6.4-20.6,14-29.6,22.7c-7.3,7.1-14,14.9-19.7,23.3   c-7.5,10.8-13.6,22.4-18.3,34.6c-4.2,11.2-7.2,22.9-8.8,34.7l-0.2,1.1l60.4,63.3l123.9,130.1l26.2,27.5h47.9l-29.4-30.8   L155.4,247.1z"></path><polygon points="144.9,429.6 3,280.7 3,331 97,429.6  "></polygon><rect x="3" y="454.3" width="326.3" height="34.7"></rect><polygon points="3,378 3,429.6 52.2,429.6  "></polygon></svg> <g transform="rotate(0 287.5 391.9699897766113)"><svg xmlns="http://www.w3.org/2000/svg" y="374.5599899291992" viewBox="5.639999866485596 3.8299999237060547 461.2799987792969 34.81999969482422" x="56.86000061035156" height="34.81999969482422" width="461.2799987792969" style="overflow: visible;"><g fill="#ffffff"><path d="M51.29 37.99L48.29 37.99L48.29 9.45L29.86 37.99L27.15 37.99L8.69 9.33L8.69 37.99L5.64 37.99L5.64 4.44L8.91 4.44L28.59 34.84L48.05 4.44L51.29 4.44L51.29 37.99ZM96.66 37.99L93.31 37.99L88.70 29.15L65.92 29.15L61.30 37.99L57.96 37.99L75.51 4.44L79.10 4.44L96.66 37.99ZM87.21 26.34L77.32 7.40L67.41 26.34L87.21 26.34ZM130.35 5.88L130.35 9.40Q129.39 8.94 128.15 8.41Q126.90 7.89 125.31 7.47Q123.71 7.06 121.70 6.77Q119.70 6.49 117.26 6.49L117.26 6.49Q114.31 6.49 112.00 6.84Q109.69 7.18 108.09 7.90Q106.49 8.62 105.65 9.72Q104.81 10.82 104.81 12.33L104.81 12.33Q104.81 13.60 105.60 14.55Q106.40 15.50 107.75 16.24Q109.11 16.97 110.93 17.57Q112.74 18.16 114.78 18.69Q116.82 19.21 118.98 19.75Q121.14 20.29 123.18 20.91Q125.22 21.53 127.04 22.30Q128.86 23.07 130.21 24.10Q131.57 25.12 132.36 26.44Q133.15 27.76 133.15 29.49L133.15 29.49Q133.15 31.37 132.45 32.78Q131.74 34.18 130.53 35.19Q129.32 36.21 127.70 36.88Q126.07 37.55 124.23 37.94Q122.39 38.33 120.42 38.49Q118.46 38.65 116.55 38.65L116.55 38.65Q112.18 38.65 108.63 38.01Q105.08 37.38 101.86 36.28L101.86 36.28L101.86 32.54Q105.18 34.52 108.87 35.25Q112.57 35.99 116.65 35.99L116.65 35.99Q119.53 35.99 121.97 35.64Q124.41 35.30 126.20 34.56Q127.98 33.81 128.97 32.62Q129.96 31.42 129.96 29.69L129.96 29.69Q129.96 28.30 129.16 27.25Q128.37 26.20 127.01 25.40Q125.66 24.61 123.84 24.00Q122.02 23.39 120.00 22.86Q117.97 22.34 115.81 21.84Q113.65 21.34 111.62 20.75Q109.59 20.17 107.78 19.43Q105.96 18.70 104.60 17.71Q103.25 16.72 102.45 15.43Q101.66 14.14 101.66 12.43L101.66 12.43Q101.66 10.74 102.29 9.44Q102.93 8.13 104.04 7.18Q105.15 6.23 106.64 5.58Q108.13 4.93 109.83 4.55Q111.52 4.17 113.35 4.00Q115.19 3.83 116.97 3.83L116.97 3.83Q118.92 3.83 120.67 4.00Q122.41 4.17 124.04 4.46Q125.66 4.74 127.21 5.10Q128.76 5.47 130.35 5.88L130.35 5.88ZM171.46 7.23L156.20 7.23L156.20 37.99L153.17 37.99L153.17 7.23L137.92 7.23L137.92 4.44L171.46 4.44L171.46 7.23ZM206.37 37.99L178.05 37.99L178.05 4.44L206.01 4.44L206.01 7.30L181.37 7.30L181.37 18.85L204.76 18.85L204.76 21.68L181.37 21.68L181.37 35.13L206.37 35.13L206.37 37.99ZM232.50 23.63L218.85 23.63L218.85 37.99L215.80 37.99L215.80 4.44L232.50 4.44Q236.33 4.44 239.06 5.04Q241.80 5.64 243.54 6.85Q245.29 8.06 246.09 9.86Q246.90 11.67 246.90 14.09L246.90 14.09Q246.90 17.85 244.92 20.10Q242.94 22.36 238.55 23.19L238.55 23.19L250 37.99L246.17 37.99L235.35 23.54Q234.67 23.58 233.96 23.61Q233.25 23.63 232.50 23.63L232.50 23.63ZM243.75 14.09L243.75 14.09Q243.75 11.94 242.99 10.61Q242.24 9.28 240.53 8.54Q238.82 7.81 236.05 7.56Q233.28 7.30 229.25 7.30L229.25 7.30L218.85 7.30L218.85 20.78L229.15 20.78Q233.18 20.78 235.96 20.54Q238.75 20.31 240.48 19.59Q242.21 18.87 242.98 17.57Q243.75 16.26 243.75 14.09ZM290.70 28.74L290.70 28.74Q290.70 30.69 290.19 32.13Q289.67 33.57 288.76 34.61Q287.84 35.64 286.56 36.29Q285.28 36.94 283.74 37.32Q282.20 37.70 280.44 37.84Q278.69 37.99 276.81 37.99L276.81 37.99L257.45 37.99L257.45 4.44L276.37 4.44Q277.81 4.44 279.25 4.57Q280.69 4.69 282.02 5.02Q283.35 5.35 284.48 5.93Q285.62 6.52 286.46 7.47Q287.30 8.42 287.78 9.77Q288.26 11.11 288.26 12.94L288.26 12.94Q288.26 14.58 287.85 15.77Q287.45 16.97 286.63 17.82Q285.82 18.68 284.55 19.23Q283.28 19.78 281.57 20.09L281.57 20.09Q284.01 20.26 285.74 20.92Q287.48 21.58 288.57 22.68Q289.67 23.78 290.19 25.31Q290.70 26.83 290.70 28.74ZM285.40 12.99L285.40 12.99Q285.40 12.28 285.30 11.57Q285.21 10.86 284.86 10.22Q284.52 9.57 283.87 9.01Q283.23 8.45 282.10 8.04Q280.98 7.64 279.33 7.41Q277.69 7.18 275.37 7.18L275.37 7.18L260.50 7.18L260.50 18.90L275.37 18.90Q278.66 18.90 280.64 18.42Q282.62 17.94 283.68 17.14Q284.74 16.33 285.07 15.26Q285.40 14.18 285.40 12.99ZM287.50 28.69L287.50 28.69Q287.50 26.78 286.84 25.44Q286.18 24.10 284.81 23.24Q283.45 22.39 281.30 21.98Q279.15 21.58 276.20 21.58L276.20 21.58L260.50 21.58L260.50 35.23L276.61 35.23Q279.66 35.23 281.75 34.88Q283.84 34.52 285.12 33.73Q286.40 32.93 286.95 31.69Q287.50 30.44 287.50 28.69ZM339.55 21.24L339.55 21.24Q339.55 25.76 337.92 29.04Q336.28 32.32 333.42 34.46Q330.57 36.60 326.68 37.62Q322.80 38.65 318.31 38.65L318.31 38.65Q313.79 38.65 309.89 37.62Q305.98 36.60 303.10 34.46Q300.22 32.32 298.58 29.04Q296.95 25.76 296.95 21.24L296.95 21.24Q296.95 18.24 297.71 15.78Q298.46 13.33 299.83 11.39Q301.20 9.45 303.14 8.03Q305.08 6.62 307.46 5.68Q309.84 4.74 312.57 4.28Q315.31 3.83 318.31 3.83L318.31 3.83Q322.80 3.83 326.68 4.86Q330.57 5.88 333.42 8.02Q336.28 10.16 337.92 13.44Q339.55 16.72 339.55 21.24ZM336.40 21.24L336.40 21.24Q336.40 17.68 335.24 14.94Q334.08 12.21 331.81 10.34Q329.54 8.47 326.16 7.51Q322.78 6.54 318.31 6.54L318.31 6.54Q313.84 6.54 310.44 7.52Q307.03 8.50 304.74 10.36Q302.44 12.23 301.27 14.98Q300.10 17.72 300.10 21.24L300.10 21.24Q300.10 24.80 301.27 27.54Q302.44 30.27 304.74 32.14Q307.03 34.01 310.44 34.97Q313.84 35.94 318.31 35.94L318.31 35.94Q322.78 35.94 326.16 34.97Q329.54 34.01 331.81 32.14Q334.08 30.27 335.24 27.54Q336.40 24.80 336.40 21.24ZM382.06 37.99L378.71 37.99L374.10 29.15L351.32 29.15L346.70 37.99L343.36 37.99L360.91 4.44L364.50 4.44L382.06 37.99ZM372.61 26.34L362.72 7.40L352.81 26.34L372.61 26.34ZM405.35 23.63L391.70 23.63L391.70 37.99L388.65 37.99L388.65 4.44L405.35 4.44Q409.18 4.44 411.91 5.04Q414.65 5.64 416.39 6.85Q418.14 8.06 418.95 9.86Q419.75 11.67 419.75 14.09L419.75 14.09Q419.75 17.85 417.77 20.10Q415.80 22.36 411.40 23.19L411.40 23.19L422.85 37.99L419.02 37.99L408.20 23.54Q407.52 23.58 406.81 23.61Q406.10 23.63 405.35 23.63L405.35 23.63ZM416.60 14.09L416.60 14.09Q416.60 11.94 415.84 10.61Q415.09 9.28 413.38 8.54Q411.67 7.81 408.90 7.56Q406.13 7.30 402.10 7.30L402.10 7.30L391.70 7.30L391.70 20.78L402.00 20.78Q406.03 20.78 408.81 20.54Q411.60 20.31 413.33 19.59Q415.06 18.87 415.83 17.57Q416.60 16.26 416.60 14.09ZM466.92 21.19L466.92 21.19Q466.92 24.41 466.25 26.92Q465.58 29.42 464.36 31.27Q463.13 33.13 461.39 34.42Q459.64 35.72 457.51 36.50Q455.37 37.28 452.87 37.63Q450.37 37.99 447.61 37.99L447.61 37.99L430.30 37.99L430.30 4.44L447.56 4.44Q451.68 4.44 455.22 5.25Q458.76 6.05 461.36 8.00Q463.96 9.94 465.44 13.16Q466.92 16.38 466.92 21.19ZM463.77 21.19L463.77 21.19Q463.77 18.46 463.23 16.36Q462.70 14.26 461.69 12.71Q460.69 11.16 459.25 10.11Q457.81 9.06 456.01 8.41Q454.20 7.76 452.08 7.50Q449.95 7.23 447.56 7.23L447.56 7.23L433.35 7.23L433.35 35.18L447.56 35.18Q451.15 35.18 454.13 34.53Q457.10 33.89 459.24 32.29Q461.38 30.69 462.57 27.99Q463.77 25.29 463.77 21.19Z" transform="translate(0, 0)"></path></g></svg></g></svg>
