<svg xmlns="http://www.w3.org/2000/svg" viewBox="3 3 370 486">
  <path d="M228.9,3c-35.8,0-70,8.2-101.7,24.2c-9.1,4.6-18,9.9-26.6,15.9c-10.1,7-19.7,14.9-28.6,23.5c-7.2,6.9-14,14.5-20.3,22.4c-7.9,9.9-14.9,20.6-20.9,31.6c-5.2,9.5-9.8,19.4-13.5,29.6c-5.1,13.5-8.8,27.6-11.1,41.9c-2,12-3,24.4-3,36.8v4.8l131.5,138l55.1,57.9h47.9L37.9,220.1c0.7-14.8,3.1-29.6,7.2-43.8c3-10.4,6.9-20.7,11.7-30.5c5.5-11.3,12.1-22,19.5-31.9c5.9-7.9,12.5-15.3,19.6-22.2c8.6-8.4,18.1-16,28.3-22.7c8.5-5.6,17.5-10.5,26.8-14.7c24.6-11.1,50.8-16.7,78-16.7h109.5L373,3H228.9z"/>
  <path d="M155.4,247.1l-47.1-49.4c3.2-12.2,8.2-23.9,15-34.7c5.3-8.4,11.5-16.2,18.6-23c8.6-8.5,18.5-15.7,29.2-21.3c9.5-5,19.5-8.7,29.9-11.1c9-2.1,18.5-3.2,27.9-3.2h65.7v161.1h-30.1l-66.3-69.6h-47.9l99.3,104.2h79.7V69.7H228.9c-18,0-35.7,3-52.5,8.9c-10,3.5-19.8,8.1-29,13.6c-10.7,6.4-20.6,14-29.6,22.7c-7.3,7.1-14,14.9-19.7,23.3c-7.5,10.8-13.6,22.4-18.3,34.6c-4.2,11.2-7.2,22.9-8.8,34.7l-0.2,1.1l60.4,63.3l123.9,130.1l26.2,27.5h47.9l-29.4-30.8L155.4,247.1z"/>
  <polygon points="144.9,429.6 3,280.7 3,331 97,429.6"/>
  <rect x="3" y="454.3" width="326.3" height="34.7"/>
  <polygon points="3,378 3,429.6 52.2,429.6"/>
  <style>path,polygon,rect{fill:#000}@media(prefers-color-scheme:dark){path,polygon,rect{fill:#fff}}</style>
</svg>
